<?xml version="1.0" encoding="UTF-8" standalone="no"?><svg xmlns="http://www.w3.org/2000/svg" xmlns:xlink="http://www.w3.org/1999/xlink" contentScriptType="application/ecmascript" contentStyleType="text/css" height="780px" preserveAspectRatio="none" style="width:1474px;height:780px;" version="1.1" viewBox="0 0 1474 780" width="1474px" zoomAndPan="magnify"><defs><filter height="300%" id="fkhqes1cqg1sp" width="300%" x="-1" y="-1"><feGaussianBlur result="blurOut" stdDeviation="2.0"/><feColorMatrix in="blurOut" result="blurOut2" type="matrix" values="0 0 0 0 0 0 0 0 0 0 0 0 0 0 0 0 0 0 .4 0"/><feOffset dx="4.0" dy="4.0" in="blurOut2" result="blurOut3"/><feBlend in="SourceGraphic" in2="blurOut3" mode="normal"/></filter></defs><g><text fill="#000000" font-family="sans-serif" font-size="18" lengthAdjust="spacingAndGlyphs" textLength="245" x="624.5" y="16.708">ATF - Components Diagram</text><!--cluster user_layer--><polygon fill="#FFFFFF" filter="url(#fkhqes1cqg1sp)" points="669,73.9531,679,63.9531,842,63.9531,842,161.9531,832,171.9531,669,171.9531,669,73.9531" style="stroke: #000000; stroke-width: 1.5;"/><line style="stroke: #000000; stroke-width: 1.5;" x1="832" x2="841" y1="73.9531" y2="64.9531"/><line style="stroke: #000000; stroke-width: 1.5;" x1="669" x2="832" y1="73.9531" y2="73.9531"/><line style="stroke: #000000; stroke-width: 1.5;" x1="832" x2="832" y1="73.9531" y2="171.9531"/><text fill="#000000" font-family="sans-serif" font-size="14" font-weight="bold" lengthAdjust="spacingAndGlyphs" textLength="97" x="703" y="89.9482">User Scripts</text><!--cluster app_layer--><polygon fill="#FFFFFF" filter="url(#fkhqes1cqg1sp)" points="531,251.9531,668,251.9531,675,274.25,808,274.25,808,354.9531,531,354.9531,531,251.9531" style="stroke: #000000; stroke-width: 1.5;"/><line style="stroke: #000000; stroke-width: 1.5;" x1="531" x2="675" y1="274.25" y2="274.25"/><text fill="#000000" font-family="sans-serif" font-size="14" font-weight="bold" lengthAdjust="spacingAndGlyphs" textLength="131" x="535" y="266.9482">Application layer</text><!--cluster buis_layer--><polygon fill="#FFFFFF" filter="url(#fkhqes1cqg1sp)" points="731,531.4531,852,531.4531,859,553.75,1035,553.75,1035,634.4531,731,634.4531,731,531.4531" style="stroke: #000000; stroke-width: 1.5;"/><line style="stroke: #000000; stroke-width: 1.5;" x1="731" x2="859" y1="553.75" y2="553.75"/><text fill="#000000" font-family="sans-serif" font-size="14" font-weight="bold" lengthAdjust="spacingAndGlyphs" textLength="115" x="735" y="546.4482">Business layer</text><!--cluster ph_layer--><polygon fill="#FFFFFF" filter="url(#fkhqes1cqg1sp)" points="371,522.9531,487,522.9531,494,545.25,691,545.25,691,642.9531,371,642.9531,371,522.9531" style="stroke: #000000; stroke-width: 1.5;"/><line style="stroke: #000000; stroke-width: 1.5;" x1="371" x2="494" y1="545.25" y2="545.25"/><text fill="#000000" font-family="sans-serif" font-size="14" font-weight="bold" lengthAdjust="spacingAndGlyphs" textLength="110" x="375" y="537.9482">Protocol layer</text><!--cluster tm_layer--><polygon fill="#FFFFFF" filter="url(#fkhqes1cqg1sp)" points="30,522.9531,158,522.9531,165,545.25,331,545.25,331,642.9531,30,642.9531,30,522.9531" style="stroke: #000000; stroke-width: 1.5;"/><line style="stroke: #000000; stroke-width: 1.5;" x1="30" x2="165" y1="545.25" y2="545.25"/><text fill="#000000" font-family="sans-serif" font-size="14" font-weight="bold" lengthAdjust="spacingAndGlyphs" textLength="122" x="34" y="537.9482">Transport layer</text><!--cluster utils_layer--><polygon fill="#FFFFFF" filter="url(#fkhqes1cqg1sp)" points="1075,531.4531,1220,531.4531,1227,553.75,1452,553.75,1452,768.9531,1075,768.9531,1075,531.4531" style="stroke: #000000; stroke-width: 1.5;"/><line style="stroke: #000000; stroke-width: 1.5;" x1="1075" x2="1227" y1="553.75" y2="553.75"/><text fill="#000000" font-family="sans-serif" font-size="14" font-weight="bold" lengthAdjust="spacingAndGlyphs" textLength="139" x="1079" y="546.4482">Data assess layer</text><!--entity Sample--><rect fill="#FEFECE" filter="url(#fkhqes1cqg1sp)" height="36.2969" style="stroke: #A80036; stroke-width: 1.5;" width="95" x="701.5" y="111.9531"/><rect fill="#FEFECE" height="5" style="stroke: #A80036; stroke-width: 1.5;" width="10" x="696.5" y="116.9531"/><rect fill="#FEFECE" height="5" style="stroke: #A80036; stroke-width: 1.5;" width="10" x="696.5" y="138.25"/><text fill="#000000" font-family="sans-serif" font-size="14" lengthAdjust="spacingAndGlyphs" textLength="75" x="711.5" y="134.9482">User Script</text><!--entity Launch--><rect fill="#FEFECE" filter="url(#fkhqes1cqg1sp)" height="36.2969" style="stroke: #A80036; stroke-width: 1.5;" width="70" x="714" y="294.9531"/><rect fill="#FEFECE" height="5" style="stroke: #A80036; stroke-width: 1.5;" width="10" x="709" y="299.9531"/><rect fill="#FEFECE" height="5" style="stroke: #A80036; stroke-width: 1.5;" width="10" x="709" y="321.25"/><text fill="#000000" font-family="sans-serif" font-size="14" lengthAdjust="spacingAndGlyphs" textLength="50" x="724" y="317.9482">Launch</text><!--entity Connection--><rect fill="#FEFECE" filter="url(#fkhqes1cqg1sp)" height="36.2969" style="stroke: #A80036; stroke-width: 1.5;" width="135" x="563.5" y="294.9531"/><rect fill="#FEFECE" height="5" style="stroke: #A80036; stroke-width: 1.5;" width="10" x="558.5" y="299.9531"/><rect fill="#FEFECE" height="5" style="stroke: #A80036; stroke-width: 1.5;" width="10" x="558.5" y="321.25"/><text fill="#000000" font-family="sans-serif" font-size="14" lengthAdjust="spacingAndGlyphs" textLength="115" x="573.5" y="317.9482">Connection Test</text><!--entity SDL--><rect fill="#FEFECE" filter="url(#fkhqes1cqg1sp)" height="36.2969" style="stroke: #A80036; stroke-width: 1.5;" width="47" x="763.5" y="574.4531"/><rect fill="#FEFECE" height="5" style="stroke: #A80036; stroke-width: 1.5;" width="10" x="758.5" y="579.4531"/><rect fill="#FEFECE" height="5" style="stroke: #A80036; stroke-width: 1.5;" width="10" x="758.5" y="600.75"/><text fill="#000000" font-family="sans-serif" font-size="14" lengthAdjust="spacingAndGlyphs" textLength="27" x="773.5" y="597.4482">SDL</text><!--entity TestBase--><rect fill="#FEFECE" filter="url(#fkhqes1cqg1sp)" height="36.2969" style="stroke: #A80036; stroke-width: 1.5;" width="90" x="826" y="574.4531"/><rect fill="#FEFECE" height="5" style="stroke: #A80036; stroke-width: 1.5;" width="10" x="821" y="579.4531"/><rect fill="#FEFECE" height="5" style="stroke: #A80036; stroke-width: 1.5;" width="10" x="821" y="600.75"/><text fill="#000000" font-family="sans-serif" font-size="14" lengthAdjust="spacingAndGlyphs" textLength="70" x="836" y="597.4482">Test Base</text><!--entity Validator--><rect fill="#FEFECE" filter="url(#fkhqes1cqg1sp)" height="36.2969" style="stroke: #A80036; stroke-width: 1.5;" width="79" x="931.5" y="574.4531"/><rect fill="#FEFECE" height="5" style="stroke: #A80036; stroke-width: 1.5;" width="10" x="926.5" y="579.4531"/><rect fill="#FEFECE" height="5" style="stroke: #A80036; stroke-width: 1.5;" width="10" x="926.5" y="600.75"/><text fill="#000000" font-family="sans-serif" font-size="14" lengthAdjust="spacingAndGlyphs" textLength="59" x="941.5" y="597.4482">Validator</text><!--entity MobSession--><rect fill="#FEFECE" filter="url(#fkhqes1cqg1sp)" height="52.5938" style="stroke: #A80036; stroke-width: 1.5;" width="75" x="403.5" y="565.9531"/><rect fill="#FEFECE" height="5" style="stroke: #A80036; stroke-width: 1.5;" width="10" x="398.5" y="570.9531"/><rect fill="#FEFECE" height="5" style="stroke: #A80036; stroke-width: 1.5;" width="10" x="398.5" y="608.5469"/><text fill="#000000" font-family="sans-serif" font-size="14" lengthAdjust="spacingAndGlyphs" textLength="45" x="413.5" y="588.9482">Mobile</text><text fill="#000000" font-family="sans-serif" font-size="14" lengthAdjust="spacingAndGlyphs" textLength="55" x="413.5" y="605.2451">Session</text><!--entity Protocol--><rect fill="#FEFECE" filter="url(#fkhqes1cqg1sp)" height="52.5938" style="stroke: #A80036; stroke-width: 1.5;" width="77" x="589.5" y="565.9531"/><rect fill="#FEFECE" height="5" style="stroke: #A80036; stroke-width: 1.5;" width="10" x="584.5" y="570.9531"/><rect fill="#FEFECE" height="5" style="stroke: #A80036; stroke-width: 1.5;" width="10" x="584.5" y="608.5469"/><text fill="#000000" font-family="sans-serif" font-size="14" lengthAdjust="spacingAndGlyphs" textLength="57" x="599.5" y="588.9482">Protocol</text><text fill="#000000" font-family="sans-serif" font-size="14" lengthAdjust="spacingAndGlyphs" textLength="53" x="599.5" y="605.2451">Handler</text><!--entity SecManager--><rect fill="#FEFECE" filter="url(#fkhqes1cqg1sp)" height="52.5938" style="stroke: #A80036; stroke-width: 1.5;" width="80" x="494" y="565.9531"/><rect fill="#FEFECE" height="5" style="stroke: #A80036; stroke-width: 1.5;" width="10" x="489" y="570.9531"/><rect fill="#FEFECE" height="5" style="stroke: #A80036; stroke-width: 1.5;" width="10" x="489" y="608.5469"/><text fill="#000000" font-family="sans-serif" font-size="14" lengthAdjust="spacingAndGlyphs" textLength="55" x="504" y="588.9482">Security</text><text fill="#000000" font-family="sans-serif" font-size="14" lengthAdjust="spacingAndGlyphs" textLength="60" x="504" y="605.2451">Manager</text><!--entity HMIConnection--><rect fill="#FEFECE" filter="url(#fkhqes1cqg1sp)" height="36.2969" style="stroke: #A80036; stroke-width: 1.5;" width="129" x="62.5" y="574.4531"/><rect fill="#FEFECE" height="5" style="stroke: #A80036; stroke-width: 1.5;" width="10" x="57.5" y="579.4531"/><rect fill="#FEFECE" height="5" style="stroke: #A80036; stroke-width: 1.5;" width="10" x="57.5" y="600.75"/><text fill="#000000" font-family="sans-serif" font-size="14" lengthAdjust="spacingAndGlyphs" textLength="109" x="72.5" y="597.4482">HMI Connection</text><!--entity MobConnection--><rect fill="#FEFECE" filter="url(#fkhqes1cqg1sp)" height="52.5938" style="stroke: #A80036; stroke-width: 1.5;" width="100" x="207" y="565.9531"/><rect fill="#FEFECE" height="5" style="stroke: #A80036; stroke-width: 1.5;" width="10" x="202" y="570.9531"/><rect fill="#FEFECE" height="5" style="stroke: #A80036; stroke-width: 1.5;" width="10" x="202" y="608.5469"/><text fill="#000000" font-family="sans-serif" font-size="14" lengthAdjust="spacingAndGlyphs" textLength="45" x="217" y="588.9482">Mobile</text><text fill="#000000" font-family="sans-serif" font-size="14" lengthAdjust="spacingAndGlyphs" textLength="80" x="217" y="605.2451">Connection</text><!--entity Utils--><rect fill="#FEFECE" filter="url(#fkhqes1cqg1sp)" height="36.2969" style="stroke: #A80036; stroke-width: 1.5;" width="49" x="1378.5" y="574.4531"/><rect fill="#FEFECE" height="5" style="stroke: #A80036; stroke-width: 1.5;" width="10" x="1373.5" y="579.4531"/><rect fill="#FEFECE" height="5" style="stroke: #A80036; stroke-width: 1.5;" width="10" x="1373.5" y="600.75"/><text fill="#000000" font-family="sans-serif" font-size="14" lengthAdjust="spacingAndGlyphs" textLength="29" x="1388.5" y="597.4482">Utils</text><!--entity CppUtils--><rect fill="#FEFECE" filter="url(#fkhqes1cqg1sp)" height="36.2969" style="stroke: #A80036; stroke-width: 1.5;" width="91" x="1336.5" y="708.9531"/><rect fill="#FEFECE" height="5" style="stroke: #A80036; stroke-width: 1.5;" width="10" x="1331.5" y="713.9531"/><rect fill="#FEFECE" height="5" style="stroke: #A80036; stroke-width: 1.5;" width="10" x="1331.5" y="735.25"/><text fill="#000000" font-family="sans-serif" font-size="14" lengthAdjust="spacingAndGlyphs" textLength="71" x="1346.5" y="731.9482">C++ Core</text><!--entity ATFLogger--><rect fill="#FEFECE" filter="url(#fkhqes1cqg1sp)" height="36.2969" style="stroke: #A80036; stroke-width: 1.5;" width="94" x="1269" y="574.4531"/><rect fill="#FEFECE" height="5" style="stroke: #A80036; stroke-width: 1.5;" width="10" x="1264" y="579.4531"/><rect fill="#FEFECE" height="5" style="stroke: #A80036; stroke-width: 1.5;" width="10" x="1264" y="600.75"/><text fill="#000000" font-family="sans-serif" font-size="14" lengthAdjust="spacingAndGlyphs" textLength="74" x="1279" y="597.4482">ATF logger</text><!--entity Events--><rect fill="#FEFECE" filter="url(#fkhqes1cqg1sp)" height="36.2969" style="stroke: #A80036; stroke-width: 1.5;" width="67" x="1186.5" y="574.4531"/><rect fill="#FEFECE" height="5" style="stroke: #A80036; stroke-width: 1.5;" width="10" x="1181.5" y="579.4531"/><rect fill="#FEFECE" height="5" style="stroke: #A80036; stroke-width: 1.5;" width="10" x="1181.5" y="600.75"/><text fill="#000000" font-family="sans-serif" font-size="14" lengthAdjust="spacingAndGlyphs" textLength="47" x="1196.5" y="597.4482">Events</text><!--entity Config--><rect fill="#FEFECE" filter="url(#fkhqes1cqg1sp)" height="36.2969" style="stroke: #A80036; stroke-width: 1.5;" width="64" x="1107" y="574.4531"/><rect fill="#FEFECE" height="5" style="stroke: #A80036; stroke-width: 1.5;" width="10" x="1102" y="579.4531"/><rect fill="#FEFECE" height="5" style="stroke: #A80036; stroke-width: 1.5;" width="10" x="1102" y="600.75"/><text fill="#000000" font-family="sans-serif" font-size="14" lengthAdjust="spacingAndGlyphs" textLength="44" x="1117" y="597.4482">Config</text><!--entity ITest--><ellipse cx="618" cy="129.9531" fill="#FEFECE" filter="url(#fkhqes1cqg1sp)" rx="8" ry="8" style="stroke: #A80036; stroke-width: 2.0;"/><text fill="#000000" font-family="sans-serif" font-size="14" lengthAdjust="spacingAndGlyphs" textLength="31" x="602.5" y="159.9482">Test</text><!--entity ISDL--><ellipse cx="786" cy="438.9531" fill="#FEFECE" filter="url(#fkhqes1cqg1sp)" rx="8" ry="8" style="stroke: #A80036; stroke-width: 2.0;"/><text fill="#000000" font-family="sans-serif" font-size="14" lengthAdjust="spacingAndGlyphs" textLength="27" x="772.5" y="468.9482">SDL</text><!--entity ITestBase--><ellipse cx="871" cy="438.9531" fill="#FEFECE" filter="url(#fkhqes1cqg1sp)" rx="8" ry="8" style="stroke: #A80036; stroke-width: 2.0;"/><text fill="#000000" font-family="sans-serif" font-size="14" lengthAdjust="spacingAndGlyphs" textLength="70" x="836" y="468.9482">Test Base</text><!--entity IValidator--><ellipse cx="966" cy="438.9531" fill="#FEFECE" filter="url(#fkhqes1cqg1sp)" rx="8" ry="8" style="stroke: #A80036; stroke-width: 2.0;"/><text fill="#000000" font-family="sans-serif" font-size="14" lengthAdjust="spacingAndGlyphs" textLength="59" x="936.5" y="468.9482">Validator</text><!--entity IProtocol--><ellipse cx="613" cy="438.9531" fill="#FEFECE" filter="url(#fkhqes1cqg1sp)" rx="8" ry="8" style="stroke: #A80036; stroke-width: 2.0;"/><text fill="#000000" font-family="sans-serif" font-size="14" lengthAdjust="spacingAndGlyphs" textLength="114" x="556" y="468.9482">Protocol Handler</text><!--entity IMobSession--><ellipse cx="450" cy="438.9531" fill="#FEFECE" filter="url(#fkhqes1cqg1sp)" rx="8" ry="8" style="stroke: #A80036; stroke-width: 2.0;"/><text fill="#000000" font-family="sans-serif" font-size="14" lengthAdjust="spacingAndGlyphs" textLength="104" x="398" y="468.9482">Mobile Session</text><!--entity ISecManager--><ellipse cx="600" cy="726.9531" fill="#FEFECE" filter="url(#fkhqes1cqg1sp)" rx="8" ry="8" style="stroke: #A80036; stroke-width: 2.0;"/><text fill="#000000" font-family="sans-serif" font-size="14" lengthAdjust="spacingAndGlyphs" textLength="119" x="540.5" y="756.9482">Security Manager</text><!--entity ISecurity--><ellipse cx="477" cy="726.9531" fill="#FEFECE" filter="url(#fkhqes1cqg1sp)" rx="8" ry="8" style="stroke: #A80036; stroke-width: 2.0;"/><text fill="#000000" font-family="sans-serif" font-size="14" lengthAdjust="spacingAndGlyphs" textLength="55" x="449.5" y="756.9482">Security</text><!--entity IHMIConnection--><ellipse cx="145" cy="438.9531" fill="#FEFECE" filter="url(#fkhqes1cqg1sp)" rx="8" ry="8" style="stroke: #A80036; stroke-width: 2.0;"/><text fill="#000000" font-family="sans-serif" font-size="14" lengthAdjust="spacingAndGlyphs" textLength="109" x="90.5" y="468.9482">HMI Connection</text><!--entity IMobConnection--><ellipse cx="301" cy="438.9531" fill="#FEFECE" filter="url(#fkhqes1cqg1sp)" rx="8" ry="8" style="stroke: #A80036; stroke-width: 2.0;"/><text fill="#000000" font-family="sans-serif" font-size="14" lengthAdjust="spacingAndGlyphs" textLength="129" x="236.5" y="468.9482">Mobile Connection</text><!--entity IUtils--><ellipse cx="1403" cy="438.9531" fill="#FEFECE" filter="url(#fkhqes1cqg1sp)" rx="8" ry="8" style="stroke: #A80036; stroke-width: 2.0;"/><text fill="#000000" font-family="sans-serif" font-size="14" lengthAdjust="spacingAndGlyphs" textLength="29" x="1388.5" y="468.9482">Utils</text><!--entity IConfig--><ellipse cx="1139" cy="438.9531" fill="#FEFECE" filter="url(#fkhqes1cqg1sp)" rx="8" ry="8" style="stroke: #A80036; stroke-width: 2.0;"/><text fill="#000000" font-family="sans-serif" font-size="14" lengthAdjust="spacingAndGlyphs" textLength="44" x="1117" y="468.9482">Config</text><!--entity IEvents--><ellipse cx="1220" cy="438.9531" fill="#FEFECE" filter="url(#fkhqes1cqg1sp)" rx="8" ry="8" style="stroke: #A80036; stroke-width: 2.0;"/><text fill="#000000" font-family="sans-serif" font-size="14" lengthAdjust="spacingAndGlyphs" textLength="47" x="1196.5" y="468.9482">Events</text><!--entity IATFLogger--><ellipse cx="1316" cy="438.9531" fill="#FEFECE" filter="url(#fkhqes1cqg1sp)" rx="8" ry="8" style="stroke: #A80036; stroke-width: 2.0;"/><text fill="#000000" font-family="sans-serif" font-size="14" lengthAdjust="spacingAndGlyphs" textLength="74" x="1279" y="468.9482">ATF logger</text><polygon fill="#FBFB77" filter="url(#fkhqes1cqg1sp)" points="1139.5,292.9531,1139.5,333.2188,1300.5,333.2188,1300.5,302.9531,1290.5,292.9531,1139.5,292.9531" style="stroke: #A80036; stroke-width: 1.0;"/><polygon fill="#FBFB77" points="1139.5,292.9531,1139.5,333.2188,1216,333.2188,1220,429.8731,1224,333.2188,1300.5,333.2188,1300.5,302.9531,1290.5,292.9531,1139.5,292.9531" style="stroke: #A80036; stroke-width: 1.0;"/><line style="stroke: #A80036; stroke-width: 1.0;" x1="1290.5" x2="1290.5" y1="292.9531" y2="302.9531"/><line style="stroke: #A80036; stroke-width: 1.0;" x1="1300.5" x2="1290.5" y1="302.9531" y2="302.9531"/><text fill="#000000" font-family="sans-serif" font-size="13" lengthAdjust="spacingAndGlyphs" textLength="128" x="1145.5" y="310.02">Global interfaces for</text><text fill="#000000" font-family="sans-serif" font-size="13" lengthAdjust="spacingAndGlyphs" textLength="136" x="1145.5" y="325.1528">all other components</text><!--link ITest to Connection--><path d="M618.592,139.2011 C620.579,166.8641 627.035,256.7431 629.764,294.7411 " fill="none" id="ITest-Connection" style="stroke: #A80036; stroke-width: 1.0;"/><!--link Connection to Launch--><!--link ITestBase to TestBase--><path d="M871,448.0981 C871,471.8841 871,541.6141 871,574.2451 " fill="none" id="ITestBase-TestBase" style="stroke: #A80036; stroke-width: 1.0;"/><!--link ISDL to SDL--><path d="M786.054,448.0981 C786.211,471.8841 786.671,541.6141 786.886,574.2451 " fill="none" id="ISDL-SDL" style="stroke: #A80036; stroke-width: 1.0;"/><!--link IValidator to Validator--><path d="M966.269,448.0981 C967.054,471.8841 969.355,541.6141 970.432,574.2451 " fill="none" id="IValidator-Validator" style="stroke: #A80036; stroke-width: 1.0;"/><!--link ISDL to TestBase--><path d="M795.598,457.0601 C811.936,486.1801 844.968,545.0561 861.345,574.2451 " fill="none" id="ISDL-TestBase" style="stroke: #A80036; stroke-width: 1.0;"/><path d="M784.7008,454.921 A9,9 0 0 0 799.4518 446.6441" fill="none" style="stroke: #A80036; stroke-width: 1.5;"/><!--link ISDL to ITestBase--><!--link ITestBase to IValidator--><!--link SDL to TestBase--><!--link TestBase to Validator--><!--link IMobSession to MobSession--><path d="M449.516,448.0981 C448.216,469.9781 444.607,530.7381 442.528,565.7321 " fill="none" id="IMobSession-MobSession" style="stroke: #A80036; stroke-width: 1.0;"/><!--link IProtocol to Protocol--><path d="M613.806,448.0981 C615.973,469.9781 621.989,530.7381 625.453,565.7321 " fill="none" id="IProtocol-Protocol" style="stroke: #A80036; stroke-width: 1.0;"/><!--link SecManager to ISecManager--><path d="M546.725,619.0001 C561.859,649.3821 586.28,698.4083 595.909,717.7397 " fill="none" id="SecManager-ISecManager" style="stroke: #A80036; stroke-width: 1.0;"/><!--link SecManager to ISecurity--><path d="M523.01,619.0001 C509.94,649.3821 488.849,698.4083 480.533,717.7397 " fill="none" id="SecManager-ISecurity" style="stroke: #A80036; stroke-width: 1.0;"/><!--link MobSession to ISecurity--><path d="M447.941,619.0001 C455.035,645.1091 465.87,684.9881 472.11,707.957 " fill="none" id="MobSession-ISecurity" style="stroke: #A80036; stroke-width: 1.0;"/><path d="M482.1222,712.5517 A9,9 0 0 0 465.7996 716.9868" fill="none" style="stroke: #A80036; stroke-width: 1.5;"/><!--link Protocol to ISecManager--><path d="M622.601,619.0001 C617.109,644.9911 608.733,684.6261 603.869,707.6427 " fill="none" id="Protocol-ISecManager" style="stroke: #A80036; stroke-width: 1.0;"/><path d="M610.6469,716.4766 A9,9 0 0 0 594.0979 712.9795" fill="none" style="stroke: #A80036; stroke-width: 1.5;"/><!--link IMobConnection to MobConnection--><path d="M298.634,448.0981 C292.28,469.9781 274.633,530.7381 264.47,565.7321 " fill="none" id="IMobConnection-MobConnection" style="stroke: #A80036; stroke-width: 1.0;"/><!--link IHMIConnection to HMIConnection--><path d="M144.032,448.0981 C141.206,471.8841 132.921,541.6141 129.045,574.2451 " fill="none" id="IHMIConnection-HMIConnection" style="stroke: #A80036; stroke-width: 1.0;"/><!--link IUtils to Utils--><path d="M1403,448.0981 C1403,471.8841 1403,541.6141 1403,574.2451 " fill="none" id="IUtils-Utils" style="stroke: #A80036; stroke-width: 1.0;"/><!--link Utils to CppUtils--><path d="M1400.3,610.5041 C1396.29,635.8061 1388.8,683.0411 1384.76,708.547 " fill="none" id="Utils-CppUtils" style="stroke: #A80036; stroke-width: 1.0;"/><!--link IATFLogger to ATFLogger--><path d="M1316,448.0981 C1316,471.8841 1316,541.6141 1316,574.2451 " fill="none" id="IATFLogger-ATFLogger" style="stroke: #A80036; stroke-width: 1.0;"/><!--link IEvents to Events--><path d="M1220,448.0981 C1220,471.8841 1220,541.6141 1220,574.2451 " fill="none" id="IEvents-Events" style="stroke: #A80036; stroke-width: 1.0;"/><!--link IConfig to Config--><path d="M1139,448.0981 C1139,471.8841 1139,541.6141 1139,574.2451 " fill="none" id="IConfig-Config" style="stroke: #A80036; stroke-width: 1.0;"/><!--link user_layer to app_layer--><!--link utils_layer to tm_layer--><!--link tm_layer to ph_layer--><!--link ph_layer to buis_layer--><!--link Sample to ITest--><path d="M744.084,111.7271 C734.077,78.2561 709.221,12.2371 673.5,32.9531 C644.522,49.7591 629.387,88.0181 622.603,111.1481 " fill="none" id="Sample-ITest" style="stroke: #A80036; stroke-width: 1.0;"/><path d="M628.9539,120.0832 A9,9 0 0 0 612.6224 115.6808" fill="none" style="stroke: #A80036; stroke-width: 1.5;"/><!--link Sample to Launch--><path d="M749,153.1091 C749,189.6761 749,261.8891 749,294.8381 " fill="none" id="Sample-Launch" style="stroke: #A80036; stroke-width: 1.0; stroke-dasharray: 7.0,7.0;"/><polygon fill="#A80036" points="749,147.9811,745,156.9811,749,152.9811,753,156.9811,749,147.9811" style="stroke: #A80036; stroke-width: 1.0;"/><text fill="#000000" font-family="sans-serif" font-size="13" lengthAdjust="spacingAndGlyphs" textLength="37" x="773.5" y="209.02">starts</text><text fill="#000000" font-family="sans-serif" font-size="13" lengthAdjust="spacingAndGlyphs" textLength="84" x="754" y="224.1528">user script(s)</text><!--link Connection to ISDL--><path d="M652.552,331.1951 C683.627,356.0541 740.398,401.4711 768.824,424.2131 " fill="none" id="Connection-ISDL" style="stroke: #A80036; stroke-width: 1.0;"/><path d="M779.8687,422.2183 A9,9 0 0 0 769.302 435.426" fill="none" style="stroke: #A80036; stroke-width: 1.5;"/><!--link Connection to ITestBase--><path d="M649.875,331.0361 C664.379,343.4551 685.362,359.9521 706,370.9531 C729.627,383.5481 795.507,399.1371 820,409.9531 C831.365,414.9721 843.582,421.6321 853.209,427.1971 " fill="none" id="Connection-ITestBase" style="stroke: #A80036; stroke-width: 1.0;"/><path d="M863.4941,423.4485 A9,9 0 0 0 854.8946 438.0138" fill="none" style="stroke: #A80036; stroke-width: 1.5;"/><!--link Connection to IValidator--><path d="M648.537,331.1531 C662.825,344.1461 684.146,361.3331 706,370.9531 C728.221,380.7341 898.347,401.2181 921,409.9531 C930.731,413.7051 940.666,419.6231 948.718,425.0541 " fill="none" id="Connection-IValidator" style="stroke: #A80036; stroke-width: 1.0;"/><path d="M959.2656,422.1547 A9,9 0 0 0 949.4998 435.9651" fill="none" style="stroke: #A80036; stroke-width: 1.5;"/><!--link Connection to IMobSession--><path d="M610.701,331.0821 C596.542,342.7641 577.028,358.3421 559,370.9531 C528.063,392.5941 490.158,415.0331 468.175,427.6711 " fill="none" id="Connection-IMobSession" style="stroke: #A80036; stroke-width: 1.0;"/><path d="M466.1425,438.5685 A9,9 0 0 0 457.7584 423.8782" fill="none" style="stroke: #A80036; stroke-width: 1.5;"/><!--link Connection to IMobConnection--><path d="M613.908,331.2171 C600.208,344.0691 579.883,361.0381 559,370.9531 C486.231,405.5011 459.53,388.0911 382,409.9531 C360.385,416.0481 336.101,424.6891 319.808,430.7561 " fill="none" id="Connection-IMobConnection" style="stroke: #A80036; stroke-width: 1.0;"/><path d="M316.2296,441.145 A9,9 0 0 0 310.2607 425.3187" fill="none" style="stroke: #A80036; stroke-width: 1.5;"/><!--link Connection to IHMIConnection--><path d="M615.01,331.0121 C601.461,344.2911 580.803,361.9331 559,370.9531 C489.133,399.8571 294.55,392.4261 221,409.9531 C200.773,414.7731 178.555,423.3671 163.396,429.7671 " fill="none" id="Connection-IHMIConnection" style="stroke: #A80036; stroke-width: 1.0;"/><path d="M160.3237,440.3124 A9,9 0 0 0 153.604 424.79" fill="none" style="stroke: #A80036; stroke-width: 1.5;"/><!--link IProtocol to MobConnection--><path d="M594.068,445.6431 C574.737,451.4141 543.841,460.5281 517,467.9531 C451.025,486.2051 429.539,476.9731 368,506.9531 C336.647,522.2271 305.445,547.0541 284.144,565.8551 " fill="none" id="IProtocol-MobConnection" style="stroke: #A80036; stroke-width: 1.0;"/><path d="M598.3812,435.524 A9,9 0 0 0 603.2354 451.727" fill="none" style="stroke: #A80036; stroke-width: 1.5;"/><!--
@startuml

skinparam nodesep 15
!pragma horizontalLineBetweenDifferentPackageAllowed

skinparam package<<Layout>> {
  borderColor Transparent
  backgroundColor Transparent
  fontColor Transparent
  stereotypeFontColor Transparent
}

title ATF - Components Diagram

node "User Scripts" as user_layer {
    component "User Script" as Sample
}

() "Test" as ITest
package "Application layer" as app_layer {
    component Launch
    component "Connection Test" as Connection

    Connection -up- ITest

    Launch    -[hidden]left- Connection
}

() "SDL" as ISDL
() "Test Base" as ITestBase
() "Validator" as IValidator
package "Business layer" as buis_layer {
    component SDL
    component "Test Base" as TestBase
    component Validator

    TestBase  -up- ITestBase
    SDL       -up- ISDL
    Validator -up- IValidator
    TestBase  -up-( ISDL

    ITestBase  -[hidden]left-  ISDL 
    ITestBase  -[hidden]right- IValidator
    TestBase   -[hidden]left-  SDL 
    TestBase   -[hidden]right- Validator
}

() "Protocol Handler"   as IProtocol
() "Mobile Session"     as IMobSession
() "Security Manager"   as ISecManager
() "Security"           as ISecurity
package "Protocol layer" as ph_layer {
    component "Mobile \n Session"   as MobSession
    component "Protocol \n Handler" as Protocol
    component "Security \n Manager" as SecManager 

    MobSession -up- IMobSession
    Protocol   -up- IProtocol
    SecManager -down- ISecManager
    SecManager -down- ISecurity
	MobSession -down-( ISecurity
	Protocol -down-( ISecManager
}

() "HMI Connection"    as IHMIConnection
() "Mobile Connection" as IMobConnection
package "Transport layer" as tm_layer {
	component "HMI Connection" as HMIConnection
    component "Mobile \n Connection" as MobConnection

    MobConnection -up- IMobConnection
    HMIConnection -up- IHMIConnection
}

() "Utils"      as IUtils
() "Config"     as IConfig
() "Events"     as IEvents
() "ATF logger" as IATFLogger
package "Data assess layer" as utils_layer {
    component "Utils"      as Utils
	component "C++ Core"   as CppUtils
	component "ATF logger" as ATFLogger
    component "Events"     as Events
	component "Config"     as Config

    Utils     -up- IUtils
    CppUtils  -up- Utils
    ATFLogger -up- IATFLogger
    Events    -up- IEvents
    Config    -up- IConfig
}
note top of IEvents
    Global interfaces for
    all other components 
end note

user_layer  -[hidden]down-  app_layer
utils_layer -[hidden]right- tm_layer
tm_layer    -[hidden]right- ph_layer
ph_layer    -[hidden]right- buis_layer

 Sample -right-( ITest
Launch .up.> Sample : starts \n user script(s)

Connection - -( ISDL
Connection - -( ITestBase
Connection - -( IValidator
Connection - -( IMobSession
Connection - -( IMobConnection
Connection - -( IHMIConnection
MobConnection -up-( IProtocol
@enduml

PlantUML version 1.2018.00(Thu Jan 04 19:42:56 UTC 2018)
(GPL source distribution)
Java Runtime: Java(TM) SE Runtime Environment
JVM: Java HotSpot(TM) 64-Bit Server VM
Java Version: 1.7.0_25-b15
Operating System: Linux
Default Encoding: UTF-8
Language: en
Country: US
--></g></svg>